<svg width="25" height="25" viewBox="0 0 25 25" fill="none" xmlns="http://www.w3.org/2000/svg">
<path fill-rule="evenodd" clip-rule="evenodd" d="M19.2363 8.77295C11.6346 13.3812 10.3541 13.929 7.36197 11.2237C8.10392 13.8089 7.76494 15.689 6.38208 17.612C9.80471 16.5688 10.4291 17.5219 12.1664 18.7146C11.097 15.3384 12.5968 14.2276 19.2363 8.77295Z" stroke="#FFB23F" stroke-width="1.40926" stroke-miterlimit="1.5" stroke-linecap="round" stroke-linejoin="round"/>
<path d="M16.3828 15.6382C16.4914 15.9928 16.5344 16.3694 16.6043 16.733" stroke="#FFB23F" stroke-width="1.40926" stroke-miterlimit="1.5" stroke-linecap="round" stroke-linejoin="round"/>
<path d="M14.9531 17.9241C15.2348 17.8809 15.5193 17.8008 15.7977 17.7358" stroke="#FFB23F" stroke-width="1.40926" stroke-miterlimit="1.5" stroke-linecap="round" stroke-linejoin="round"/>
<path d="M16.9456 18.4015C16.9446 18.7498 17.007 19.2001 17.1166 19.536" stroke="#FFB23F" stroke-width="1.40926" stroke-miterlimit="1.5" stroke-linecap="round" stroke-linejoin="round"/>
<path d="M17.8442 17.3979C18.2199 17.4283 18.6155 17.2768 18.9908 17.23" stroke="#FFB23F" stroke-width="1.40926" stroke-miterlimit="1.5" stroke-linecap="round" stroke-linejoin="round"/>
<path d="M9.56079 5.7312C9.60142 6.12901 9.66884 6.52185 9.74781 6.9132" stroke="#FFB23F" stroke-width="1.40926" stroke-miterlimit="1.5" stroke-linecap="round" stroke-linejoin="round"/>
<path d="M7.9978 7.96262C8.29549 7.93598 8.5806 7.89901 8.87374 7.84558" stroke="#FFB23F" stroke-width="1.40926" stroke-miterlimit="1.5" stroke-linecap="round" stroke-linejoin="round"/>
<path d="M10.0625 8.56311C10.0687 8.93523 10.1428 9.33075 10.2183 9.69668" stroke="#FFB23F" stroke-width="1.40926" stroke-miterlimit="1.5" stroke-linecap="round" stroke-linejoin="round"/>
<path d="M11.0029 7.54454C11.3418 7.46006 11.6554 7.34589 12.0059 7.30579" stroke="#FFB23F" stroke-width="1.40926" stroke-miterlimit="1.5" stroke-linecap="round" stroke-linejoin="round"/>
</svg>
